# xmcd
#
# Track frame offsets: 
#        182
#        20790
#        88162
#        132182
#        171257
#        201187
#        224242
#        253012
#
# Disc length: 3610 seconds
#
# Revision: 1
# Processed by: cddbd v1.5.2PL0 Copyright (c) Steve Scherf et al.
# Submitted via: ExactAudioCopy v0.95b4
#
DISCID=7d0e1808
DTITLE=Buell Neidlinger - with Marty Krystall and Hugh Schick: Big Dru
DTITLE=m
DYEAR=1992
DGENRE=Jazz
TTITLE0=Big Drum
TTITLE1=Ming's Visit
TTITLE2=Buejerk
TTITLE3=O.P.
TTITLE4=Tienanmen Bop
TTITLE5=Brilliant Corners
TTITLE6=EI A
TTITLE7=Sam's Blues
EXTD=YEAR: 1992
EXTT0=
EXTT1=
EXTT2=
EXTT3=
EXTT4=
EXTT5=
EXTT6=
EXTT7=
PLAYORDER=
